{"title":"Machete.2010.TS.X264-SDTeam","uid":5825685,"size":466043584,"categoryP":"video","categoryS":"movies","magnet":"?xt=urn:btih:d503ec85230375f6c2fd4ad9d7fe0e06b92fa408&amp;dn=Machete.2010.TS.X264-SDTeam&amp;tr=udp%3A%2F%2Ftracker.openbittorrent.com%3A80&amp;tr=udp%3A%2F%2Fopen.demonii.com%3A1337&amp;tr=udp%3A%2F%2Ftracker.coppersurfer.tk%3A6969&amp;tr=udp%3A%2F%2Fexodus.desync.com%3A6969","seeders":0,"leechers":0,"uploader":"bg2k9","files":-1,"time":1284258620,"description":"GREETZ: UnDeaD - BadGirl2k9 - virusofsaten - foxyb - WICCYWOLF - lizzymwah1\n\nVISIT http://www.seedboxworld.biz/ for all ur seedbox needs!\n\nRELEASE NAME: Machete.2010.TS.X264-SDTeam\nRELEASED BY: UnDeaD &amp; BadGirl2k9\nSIZE: 444 MB\n\nLANGUAGE: English\nIMDb: http://www.imdb.com/title/tt0985694/\n\nPLOT: The highly skilled Federale Machete is hired by \nsome unsavory types to assassinate a senator. But just as \nhe's about to take the shot, he notices someone aiming at \nhim and realizes he's been set up. He barely survives the \nsniper's bullet, and is soon out for revenge on his former \nemployers, with the reluctant assistance of his old friend \nCheech Marin, who has become a priest and taken a vow of \nnonviolence. If you hire him to take out the bad guys, \nmake sure the bad guys aren't you!\n\nCOVER IMAGE: http://bayimg.com/baolLAaCO\nSCREENS: &lt;a href=&quot;\nhttp://i658.photobucket.com/albums/uu309/BadGirl2k9/screens/vlcsnap-2010-09-12-01h21m42s0.png&quot; rel=&quot;nofollow&quot; target=&quot;_NEW&quot;&gt;\nhttp://i658.photobucket.com/albums/uu309/BadGirl2k9/screens/vlcsnap-2010-09-12-01h21m42s0.png&lt;/a&gt; &lt;a href=&quot;\nhttp://i658.photobucket.com/albums/uu309/BadGirl2k9/screens/vlcsnap-2010-09-12-01h21m50s0.png&quot; rel=&quot;nofollow&quot; target=&quot;_NEW&quot;&gt;\nhttp://i658.photobucket.com/albums/uu309/BadGirl2k9/screens/vlcsnap-2010-09-12-01h21m50s0.png&lt;/a&gt; &lt;a href=&quot;\nhttp://i658.photobucket.com/albums/uu309/BadGirl2k9/screens/vlcsnap-2010-09-12-01h22m02s0.png&quot; rel=&quot;nofollow&quot; target=&quot;_NEW&quot;&gt;\nhttp://i658.photobucket.com/albums/uu309/BadGirl2k9/screens/vlcsnap-2010-09-12-01h22m02s0.png&lt;/a&gt;\n\nGeneral\nFormat                           : MPEG-4\nFormat profile                   : Base Media\nCodec ID                         : isom\nFile size                        : 444 MiB\nDuration                         : 1h 38mn\nOverall bit rate                 : 630 Kbps\nEncoded date                     : UTC 2010-09-11 00:11:20\nTagged date                      : UTC 2010-09-11 00:11:20\n\nVideo\nID                               : 1\nFormat                           : AVC\nFormat/Info                      : Advanced Video Codec\nFormat profile                   : &lt;a class=&quot;__cf_email__&quot; href=&quot;/cdn-cgi/l/email-protection&quot; data-cfemail=&quot;672f0e000f272b544957&quot;&gt;[email&amp;#160;protected]&lt;/a&gt;&lt;script data-cfhash='f9e31' type=&quot;text/javascript&quot;&gt;\n/* &lt;![CDATA[ */!function(){try{var t=&quot;currentScript&quot;in document?document.currentScript:function(){for(var t=document.getElementsByTagName(&quot;script&quot;),e=t.length;e--;)if(t[e].getAttribute(&quot;data-cfhash&quot;))return t[e]}();if(t&amp;&amp;t.previousSibling){var e,r,n,i,c=t.previousSibling,a=c.getAttribute(&quot;data-cfemail&quot;);if(a){for(e=&quot;&quot;,r=parseInt(a.substr(0,2),16),n=2;a.length-n;n+=2)i=parseInt(a.substr(n,2),16)^r,e+=String.fromCharCode(i);e=document.createTextNode(e),c.parentNode.replaceChild(e,c)}t.parentNode.removeChild(t);}}catch(u){}}()/* ]]&gt; */&lt;/script&gt;\nFormat settings, CABAC           : Yes\nFormat settings, ReFrames        : 4 frames\nCodec ID                         : avc1\nCodec ID/Info                    : Advanced Video Coding\nDuration                         : 1h 38mn\nBit rate mode                    : Variable\nBit rate                         : 500 Kbps\nMaximum bit rate                 : 2 357 Kbps\nWidth                            : 720 pixels\nHeight                           : 360 pixels\nDisplay aspect ratio             : 2.000\nFrame rate mode                  : Constant\nFrame rate                       : 20.000 fps\nResolution                       : 8 bits\nColorimetry                      : 4:2:0\nScan type                        : Progressive\nBits/(Pixel*Frame)               : 0.096\nStream size                      : 352 MiB (79%)\nTitle                            : Imported with GPAC 0.4.6-DEV (internal rev. 5)\nWriting library                  : x264 core 102 r1666 d058f37\n\nAudio\nID                               : 2\nFormat                           : MPEG Audio\nFormat version                   : Version 1\nFormat profile                   : Layer 3\nFormat_Settings_Mode             : Joint stereo\nFormat_Settings_ModeExtension    : MS Stereo\nCodec ID                         : 6B\nDuration                         : 1h 38mn\nBit rate mode                    : Constant\nBit rate                         : 128 Kbps\nMaximum bit rate                 : 134 Kbps\nChannel(s)                       : 2 channels\nSampling rate                    : 44.1 KHz\nStream size                      : 90.3 MiB (20%)\nTitle                            : Imported with GPAC 0.4.6-DEV (internal rev. 5)\n\nGROUP NOTE: Big thanks to seedboxworld.biz for the seedbox!\n\n","torrent":{"xt":"urn:btih:d503ec85230375f6c2fd4ad9d7fe0e06b92fa408","amp;dn":"Machete.2010.TS.X264-SDTeam","amp;tr":["udp%3A%2F%2Ftracker.openbittorrent.com%3A80","udp%3A%2F%2Fopen.demonii.com%3A1337","udp%3A%2F%2Ftracker.coppersurfer.tk%3A6969","udp%3A%2F%2Fexodus.desync.com%3A6969"],"infoHash":"d503ec85230375f6c2fd4ad9d7fe0e06b92fa408","infoHashBuffer":{"type":"Buffer","data":[213,3,236,133,35,3,117,246,194,253,74,217,215,254,14,6,185,47,164,8]},"announce":[],"urlList":[]}}